<svg width="100%" viewBox="0 0 48 48" fill="none" xmlns="http://www.w3.org/2000/svg" style="background-size:96px 96px">
    <path d="M24 48C37.2548 48 48 37.2548 48 24C48 10.7452 37.2548 0 24 0C10.7452 0 0 10.7452 0 24C0 37.2548 10.7452 48 24 48Z" fill="#C9D2D6"></path>
    <path d="M21.1201 16.3101C21.1201 16.8401 20.6901 17.2701 20.1601 17.2701H13.4301V38.4201H34.5801V9.58008H21.1201V16.3101ZM24.1701 26.3201L28.9201 21.5701C29.0101 21.4801 29.1701 21.4801 29.2601 21.5701L30.2801 22.5901C30.3701 22.6801 30.3701 22.8401 30.2801 22.9301L25.5301 27.6801C25.4401 27.7701 25.4401 27.9301 25.5301 28.0201L30.2801 32.7701C30.3701 32.8601 30.3701 33.0201 30.2801 33.1101L29.2601 34.1301C29.1701 34.2201 29.0101 34.2201 28.9201 34.1301L24.1701 29.3801C24.0801 29.2901 23.9201 29.2901 23.8301 29.3801L19.0801 34.1301C18.9901 34.2201 18.8301 34.2201 18.7401 34.1301L17.7201 33.1101C17.6301 33.0201 17.6301 32.8601 17.7201 32.7701L22.4701 28.0201C22.5601 27.9301 22.5601 27.7701 22.4701 27.6801L17.7201 22.9301C17.6301 22.8401 17.6301 22.6801 17.7201 22.5901L18.7401 21.5701C18.8301 21.4801 18.9901 21.4801 19.0801 21.5701L23.8301 26.3201C23.9201 26.4101 24.0801 26.4101 24.1701 26.3201Z" fill="white"></path>
    <path d="M19.1899 9.98047L13.8199 15.3505H19.1899V9.98047Z" fill="white"></path>
    <path d="M35.54 7.65039H20.15H19.19C19.06 7.65039 18.94 7.68039 18.82 7.72039C18.7 7.77039 18.6 7.84039 18.51 7.93039L11.78 14.6604C11.69 14.7504 11.62 14.8504 11.57 14.9704C11.52 15.0904 11.5 15.2104 11.5 15.3404V16.3004V39.3804C11.5 39.9104 11.93 40.3404 12.46 40.3404H35.54C36.07 40.3404 36.5 39.9104 36.5 39.3804V8.62039C36.5 8.08039 36.07 7.65039 35.54 7.65039ZM19.19 9.98039V15.3504H13.82L19.19 9.98039ZM34.58 38.4204H13.42V17.2704H20.15C20.68 17.2704 21.11 16.8404 21.11 16.3104V9.58039H34.57V38.4204H34.58Z" fill="#243142"></path>
    <path d="M18.74 21.5701L17.72 22.5901C17.63 22.6801 17.63 22.8401 17.72 22.9301L22.47 27.6801C22.56 27.7701 22.56 27.9301 22.47 28.0201L17.72 32.7701C17.63 32.8601 17.63 33.0201 17.72 33.1101L18.74 34.1301C18.83 34.2201 18.99 34.2201 19.08 34.1301L23.83 29.3801C23.92 29.2901 24.08 29.2901 24.17 29.3801L28.92 34.1301C29.01 34.2201 29.17 34.2201 29.26 34.1301L30.28 33.1101C30.37 33.0201 30.37 32.8601 30.28 32.7701L25.53 28.0201C25.44 27.9301 25.44 27.7701 25.53 27.6801L30.28 22.9301C30.37 22.8401 30.37 22.6801 30.28 22.5901L29.26 21.5701C29.17 21.4801 29.01 21.4801 28.92 21.5701L24.17 26.3201C24.08 26.4101 23.92 26.4101 23.83 26.3201L19.08 21.5701C18.99 21.4701 18.83 21.4701 18.74 21.5701Z" fill="#243142"></path>
</svg>
